<svg xmlns="http://www.w3.org/2000/svg" viewBox="0 0 1024 1024" role="img" aria-label="Spreadsheet Auditor app icon">
  <defs>
    <linearGradient id="bg" x1="160" y1="120" x2="860" y2="920" gradientUnits="userSpaceOnUse">
      <stop stop-color="#0B5FFF"/>
      <stop offset="1" stop-color="#0F766E"/>
    </linearGradient>
    <linearGradient id="paper" x1="265" y1="180" x2="760" y2="795" gradientUnits="userSpaceOnUse">
      <stop stop-color="#FFFFFF"/>
      <stop offset="1" stop-color="#EAF2FF"/>
    </linearGradient>
    <filter id="shadow" x="-20%" y="-20%" width="140%" height="140%">
      <feDropShadow dx="0" dy="28" stdDeviation="28" flood-color="#082F49" flood-opacity="0.28"/>
    </filter>
  </defs>
  <rect x="64" y="64" width="896" height="896" rx="204" fill="url(#bg)"/>
  <circle cx="790" cy="234" r="96" fill="#22D3EE" opacity="0.22"/>
  <circle cx="210" cy="790" r="120" fill="#FFFFFF" opacity="0.10"/>

  <g filter="url(#shadow)">
    <path d="M294 170h348l118 118v506c0 34-28 62-62 62H294c-34 0-62-28-62-62V232c0-34 28-62 62-62z" fill="url(#paper)"/>
    <path d="M642 170v102c0 22 18 40 40 40h78z" fill="#CFE4FF"/>
    <rect x="300" y="360" width="392" height="308" rx="20" fill="#F8FBFF" stroke="#C7D7FE" stroke-width="12"/>
    <path d="M300 448h392M300 532h392M300 616h392M398 360v308M496 360v308M594 360v308" stroke="#BCD0EA" stroke-width="10"/>
  </g>

  <circle cx="650" cy="672" r="132" fill="#FFFFFF" opacity="0.94"/>
  <circle cx="650" cy="672" r="92" fill="none" stroke="#0F766E" stroke-width="44"/>
  <path d="M724 746l92 92" stroke="#0F766E" stroke-width="54" stroke-linecap="round"/>
  <path d="M607 673l40 40 78-92" fill="none" stroke="#10B981" stroke-width="34" stroke-linecap="round" stroke-linejoin="round"/>

  <circle cx="294" cy="300" r="58" fill="#F59E0B"/>
  <path d="M294 260v52" stroke="#FFFFFF" stroke-width="20" stroke-linecap="round"/>
  <circle cx="294" cy="338" r="10" fill="#FFFFFF"/>
</svg>
